<svg xmlns="http://www.w3.org/2000/svg" xmlns:xlink="http://www.w3.org/1999/xlink" width="153.04" height="263.1" viewBox="0 0 153.04 263.1"><defs><linearGradient id="a" x1="148.65" y1="157.27" x2="35.82" y2="104.09" gradientUnits="userSpaceOnUse"><stop offset="0" stop-color="#f15a24"/><stop offset="1" stop-color="#c20c00"/></linearGradient></defs><title>Asset 49</title><g style="isolation:isolate"><path d="M106.71,262.44c-3.47-2.8-32.83-27.14-47-60.94a106.25,106.25,0,0,1-4.53-13l-.26-1-.61.79c-.15.19-14.69,18.45-53,35.4,1.41-2.24,4.32-7,7.88-13.24,11.82-20.9,31-59.52,26.86-83.36C31.69,102.3,15.11,98.6,5.61,98.6c-.8,0-1.6,0-2.38.08-1,.07-1.79.17-2.3.25C1.41,92.86,6.71,44,54.27,17.05,68.64,8.89,85.66,3.42,104.87.76A71,71,0,0,0,89.14,17.3l-.43.63c-.28.41-.56.84-.83,1.27-.15.22-.28.44-.42.66s-.28.44-.41.66c-.28.45-.55.91-.82,1.37-.14.23-.27.47-.4.7l-.39.69c-1,1.76-1.86,3.54-2.65,5.32C74.89,46.25,70.64,76,95.23,117.71l0,.05c3.26,5.53,7,11.19,11.07,16.82l.45.63.47-.83a101.76,101.76,0,0,0,10.64-33c2.59-18.21-.09-35.12-8-50.35,11.65,14.82,46.93,64.93,42.15,122.87a123.92,123.92,0,0,1-7.2,32.68,137.9,137.9,0,0,1-22.4,38.88A175.68,175.68,0,0,1,106.71,262.44Z" style="fill:url(#a)"/><path d="M103,1.53A71.76,71.76,0,0,0,88.73,17l.82.56-.86-.52-.39.58c-.28.42-.57.85-.84,1.28-.15.23-.29.45-.42.67l-.42.67c-.28.45-.55.91-.82,1.38-.14.23-.28.47-.4.7s-.28.48-.41.72c-1,1.75-1.86,3.54-2.66,5.33C74.39,46.15,70.1,76.1,94.8,118l.07.11h0c3.27,5.52,7,11.18,11.06,16.81l.9,1.24.78-1.33.09-.17a102.59,102.59,0,0,0,10.7-33.21c2.35-16.55.38-32-5.85-46.16a227.7,227.7,0,0,1,18.64,29.94c10.91,21,23.32,53.42,20.41,88.62a123.57,123.57,0,0,1-7.17,32.54,137,137,0,0,1-22.32,38.74,175.38,175.38,0,0,1-15.42,16.69C102,258,73.91,234.08,60.17,201.3a104.06,104.06,0,0,1-4.5-13l-.53-1.92L53.91,188c-.14.18-14.25,17.89-51.32,34.59,1.58-2.55,4.08-6.68,7-11.87,11.86-21,31.13-59.7,26.92-83.69C32,100.92,13.38,98.1,5.61,98.1c-.81,0-1.62,0-2.42.08s-1.24.11-1.71.17a106.4,106.4,0,0,1,53-80.87C68.36,9.63,84.66,4.27,103,1.53M106.84,0C85.1,2.76,67.8,8.8,54,16.61,2.66,45.75.39,99.53.39,99.53a25.37,25.37,0,0,1,2.87-.35c.69-.05,1.48-.08,2.35-.08,8.69,0,25.59,3.3,29.94,28.08,4.15,23.68-15,62.14-26.81,83C3.76,219,.09,224.67,0,224.81c40.05-17.4,54.7-36.21,54.7-36.21a104.81,104.81,0,0,0,4.55,13.09C74.48,238,106.74,263.1,106.74,263.1a174.14,174.14,0,0,0,16.15-17.38,137.57,137.57,0,0,0,22.48-39,124.41,124.41,0,0,0,7.23-32.81c5.65-68.5-45.1-126.74-45.85-127.6,11.73,19.36,12.91,39.11,10.65,55a101.06,101.06,0,0,1-10.57,32.88l-.09.15q-6.3-8.72-11.07-16.84h0C72,77.34,74.62,48.08,83.25,28.8c.82-1.84,1.7-3.59,2.62-5.25l.39-.71.4-.7.81-1.35.41-.67.42-.65c.27-.43.55-.85.83-1.27l.38-.57a.1.1,0,0,0,0-.05A66.54,66.54,0,0,1,106.84,0Z" style="fill:#181818"/><path d="M59.24,181.29,13.43,214.07,8.74,210.2c11.82-20.88,31-59.34,26.81-83-4.79-27.27-24.77-28.53-32.29-28l.29-3.6s22.71-16.19,48,12.25c0,0,5.5,10.86,3.56,28.63C54.45,142.41,51.74,165.49,59.24,181.29Z" style="opacity:0.30000000000000004;mix-blend-mode:overlay"/><path d="M115.72,124.61s1.68,33.15,14.32,44.81l-7-5.31-14.61-18.56-1.78-9.09Z" style="opacity:0.15"/><path d="M55.1,136.86S42.65,164.7,48.58,188.8l9.68-9.09S51.15,161.35,55.1,136.86Z" style="opacity:0.15"/><path d="M10.07,94.2s22.51-5.13,41.47,13.63c0,0-13.82-7.9-26.26-4.74Z" style="opacity:0.15"/><path d="M4.58,92.19a11.46,11.46,0,0,1,1-.58c.31-.16.59-.27.89-.41.6-.27,1.18-.44,1.76-.65a24.83,24.83,0,0,1,3.51-.84,29.52,29.52,0,0,1,3.49-.37c1.16-.06,2.3,0,3.44,0a36.64,36.64,0,0,1,12.74,3.47,49.08,49.08,0,0,1,5.64,3,10.51,10.51,0,0,1,1.34.86l1.29.91c.86.61,1.73,1.2,2.57,1.82,1.6,1.35,3.23,2.65,4.78,4l4.46,4.33-5.06-3.55c-1.73-1.1-3.52-2.11-5.26-3.16-.9-.46-1.82-.89-2.73-1.34l-1.36-.66a10.1,10.1,0,0,0-1.39-.61,47,47,0,0,0-5.64-1.94,31.88,31.88,0,0,0-11.38-1.26c-.92.15-1.84.21-2.72.41a21.27,21.27,0,0,0-2.58.71,16.45,16.45,0,0,0-2.39,1,11.56,11.56,0,0,0-1,.6c-.16.11-.35.22-.47.32s-.33.24-.27.23Z" style="fill:#181818"/><path d="M54.16,186.22c-.23-1.19-.38-2.19-.53-3.26s-.27-2.11-.39-3.16c-.22-2.1-.4-4.19-.51-6.28-.24-4.17-.32-8.34-.21-12.48s.35-8.28.81-12.38,1.06-8.17,1.77-12.2c-.06,4.1-.05,8.18.21,12.25s.63,8.1,1.16,12.11,1.26,8,2.13,11.89c.42,2,.92,3.9,1.44,5.82.26.95.53,1.91.82,2.84s.61,1.91.9,2.7Z" style="fill:#181818"/><path d="M111.41,140.73c.17.54.43,1.23.68,1.86s.53,1.3.8,1.95c.57,1.29,1.17,2.58,1.82,3.85a76.3,76.3,0,0,0,4.27,7.49,72.47,72.47,0,0,0,5.1,7.05,74.25,74.25,0,0,0,6,6.49,73.87,73.87,0,0,1-7.34-5.08,75,75,0,0,1-6.78-6,82,82,0,0,1-6.17-6.72q-1.45-1.78-2.83-3.64c-.45-.63-.91-1.25-1.35-1.91s-.86-1.27-1.33-2.06Z" style="fill:#181818"/><path d="M83.17,12.92l-.11.16-.07.1,0,0c-.14.2-.28.4-.41.61-.31.45-.61.91-.88,1.34-.17.25-.33.51-.49.77l-.44.7c-.31.51-.62,1-.9,1.52-.16.26-.31.53-.46.79l-.44.79c-1.06,1.92-2,3.88-2.91,5.84-8.62,19.25-13.38,51.5,12.82,95.9l.48.82h0c3.28,5.48,7,11.07,11,16.63l7.12,9.79,6.11-10.46.15-.25a108.17,108.17,0,0,0,11.51-35.62,105.68,105.68,0,0,0,1-11.74c10.19,20.21,21.16,50.27,18.5,82.6A117,117,0,0,1,138,204a130.66,130.66,0,0,1-21.21,36.79c-3.18,3.93-6.65,7.83-10.38,11.64-9.4-8.47-29.16-28.3-39.84-53.77a97.53,97.53,0,0,1-4.21-12.12l-4.14-15.24L48.5,183.71c-.11.13-8.23,10.13-28.27,22,13.66-25.55,27-57.6,23.1-79.88C38.45,98,19.32,92.41,9.45,91.4c3-15.33,13.27-47.95,48.47-67.92A120.18,120.18,0,0,1,83.17,12.92M106.84,0C85.1,2.76,67.8,8.8,54,16.61,2.66,45.75.39,99.53.39,99.53a25.37,25.37,0,0,1,2.87-.35c.69-.05,1.48-.08,2.35-.08,8.69,0,25.59,3.3,29.94,28.08,4.15,23.68-15,62.14-26.81,83C3.76,219,.09,224.67,0,224.81c40.05-17.4,54.7-36.21,54.7-36.21a104.81,104.81,0,0,0,4.55,13.09C74.48,238,106.74,263.1,106.74,263.1a174.14,174.14,0,0,0,16.15-17.38,137.57,137.57,0,0,0,22.48-39,124.41,124.41,0,0,0,7.23-32.81c5.65-68.5-45.1-126.74-45.85-127.6,11.73,19.36,12.91,39.11,10.65,55a101.06,101.06,0,0,1-10.57,32.88l-.09.15q-6.3-8.72-11.07-16.84h0C72,77.34,74.62,48.08,83.25,28.8c.82-1.84,1.7-3.59,2.62-5.25l.39-.71.4-.7.81-1.35.41-.67.42-.65c.27-.43.55-.85.83-1.27l.38-.57a.1.1,0,0,0,0-.05A66.54,66.54,0,0,1,106.84,0Z" style="fill:#181818"/></g></svg>