<svg xmlns="http://www.w3.org/2000/svg" xmlns:xlink="http://www.w3.org/1999/xlink" width="911.88" height="313.08" viewBox="0 0 911.88 313.08"><defs><linearGradient id="a" x1="148.65" y1="157.27" x2="35.82" y2="104.09" gradientUnits="userSpaceOnUse"><stop offset="0" stop-color="#f15a24"/><stop offset="1" stop-color="#c20c00"/></linearGradient></defs><title>Asset 50</title><g style="isolation:isolate"><path d="M911.46,193.47c-.42-.57-1.06-1.45-1.75-2.28a12.06,12.06,0,0,0-2-1.94,8.93,8.93,0,0,0-2.77-1.56,5.6,5.6,0,0,0-1.18-.22,7.25,7.25,0,0,0-1.12.06,8.53,8.53,0,0,0-1.53.29,21.06,21.06,0,0,0-7,3.51,31.79,31.79,0,0,0-7.48,8.31l-.12.18c-.15.23-.27.46-.42.68.43-2.24.87-4.09,1.22-5.32,0,0,0-.09,0-.22.07-.85.35-3.81.5-4.22a19.11,19.11,0,0,0-.1-3,28.66,28.66,0,0,0-.33-3.76c-.05-.2-.09-.33-.15-.37s-.34.14-.66.51a20.71,20.71,0,0,0-1.64,2.19,12.42,12.42,0,0,0-1.13,2.17c-.21.57-.67,1.4-1.11,2.28a13.16,13.16,0,0,0-1.25,2.77A95,95,0,0,0,879,210.23v.19c-.2,2.21-.31,4.37-.38,6.38-1.32,1.17-2.86,2.6-4.65,4a12,12,0,0,1-4.48,2.3,4.68,4.68,0,0,1-4-1c-1.61-1.19-2.27-3.46-2.49-5.7a51.14,51.14,0,0,0,1.37-6.67,38.29,38.29,0,0,0,.12-7v0c-.16-2.21-.31-4.37-.41-5.78a45,45,0,0,0-.72-5.52c-.41-2.2-.93-4.45-1.35-5.91-.29-1-.53-1.67-.63-1.61a1.81,1.81,0,0,0-.19.69c-.24,1.42-.52,4.83-.85,8s-.7,6-.71,6.48a42.91,42.91,0,0,1-.36,4.48c-.22,2-.64,4.15-.85,5.12l-.09.48a46.93,46.93,0,0,1-3.95,13.49,31.08,31.08,0,0,1-5,7.81,12.76,12.76,0,0,1-7.73,4.47c-.36.06-.71.05-1.06.09s-.7,0-1.05,0a11.34,11.34,0,0,1-7.42-4.43,16.71,16.71,0,0,1-2.34-3.8,17.85,17.85,0,0,1-1.25-4.06,30.24,30.24,0,0,1-.51-7.76,43.18,43.18,0,0,1,.83-5.92c0-.06,0-.23.08-.51.06-.48.16-1.25.33-2.15s.35-1.95.58-3c.43-2,.93-3.93,1.1-4.4.26-.93,2.23-11.56,2.24-14.45a1.91,1.91,0,0,0-.06-.71c-.08-.08-.44.49-.93,1.44-1.37,2.64-4.08,8.16-4.86,10.37-.47,1.31-1.33,3.26-2.17,5.3a0,0,0,0,1,0,0,39.47,39.47,0,0,0-2.2,6.63,49.69,49.69,0,0,0-.94,6.76c0,1-.07,2,0,3.16-1.13,1-2.39,2.13-3.81,3.24a13.49,13.49,0,0,1-4.3,2.38,4.54,4.54,0,0,1-3.93-.56,5.14,5.14,0,0,1-2.31-3.15,9.39,9.39,0,0,1-.34-2.55,64,64,0,0,0,1.31-8.22l0-.52c.1-1.17.2-2.34.24-3.5s.08-2.37,0-3.55a34.44,34.44,0,0,0-.92-7,21.24,21.24,0,0,0-2.73-6.56,13.94,13.94,0,0,0-5.29-4.86,14.93,14.93,0,0,0-12-.58,21.94,21.94,0,0,0-6.92,4.45,29.13,29.13,0,0,0-4.95,6.37l0,0c-1.32,2.2-2.36,4.44-3.07,5.89a28.39,28.39,0,0,0-2,6.1c-.24,1.09-.42,2.2-.55,3.25a51.7,51.7,0,0,1-3,5.84c-1.7,2.91-3.69,5.81-5.73,8.88s-4,6.31-6.21,9.41c-4.39,6.24-9.79,12.29-16.83,16.24a41.59,41.59,0,0,1-11.5,4.24,59.4,59.4,0,0,1-12.82,1.15c-2.94,0-5.91-.22-8.93-.51.83-1.68,1.6-3.35,2.3-5,.31-.71.62-1.4.93-2.09l.8-2.08,1.54-4c.42-1.32.84-2.6,1.24-3.85s.8-2.44,1.09-3.63c.39-1.42.74-2.79,1-4.1l.21.57a18.55,18.55,0,0,0,3.53,5.5,15.42,15.42,0,0,0,2.93,2.45l.83.57c.3.17.62.32.94.48a9.77,9.77,0,0,0,2,.84,12.9,12.9,0,0,0,9.64-.68,23.41,23.41,0,0,0,8.22-7,37.18,37.18,0,0,0,5.7-10.63,58.27,58.27,0,0,0,2.82-13.18c.12-1.18.21-2.37.28-3.6s.07-2.53,0-3.83a31.51,31.51,0,0,0-1.34-8.07,16.9,16.9,0,0,0-5.1-7.9,14.23,14.23,0,0,0-9.8-3.26,17.81,17.81,0,0,0-9.77,3.82,34.16,34.16,0,0,0-7,7.34A44.81,44.81,0,0,0,711,207.94c-1.25-1.44-2.49-2.93-3.65-4.41A101.94,101.94,0,0,1,700.06,193a58,58,0,0,1-5.07-9.57,67.09,67.09,0,0,1-2.63-7.45c5.17-18.23,11-44.79,10.71-73.9,0-.39-.08-.78-.12-1.17a22.77,22.77,0,0,0-.81-4.11,11.49,11.49,0,0,0-.91-2.21,7.05,7.05,0,0,0-1.89-2.27,5.62,5.62,0,0,0-3.3-1.2,13,13,0,0,0-1.3,0c-.42,0-.84.13-1.26.21a9.9,9.9,0,0,0-4.37,2.37,17.72,17.72,0,0,0-4.39,7.2,43.4,43.4,0,0,0-1.78,7.24c-.4,2.38-.65,4.71-.85,7s-.34,4.47-.51,6.65c-.28,4.39-.42,8.64-.42,12.71a163.26,163.26,0,0,0,4,37.53c.25,1.07.6,2.33,1,3.68l-.09.31c-1.71,5.84-3.37,10.8-4.66,14.73l-.36,1.18,0,.06c-.71,2.36-2.27,7.55-3.94,12.34s-3.52,9.18-4.06,10.27a92.41,92.41,0,0,1-7,13.85,40.71,40.71,0,0,1-3,4c-.93.49-1.89,1-2.85,1.39a18.49,18.49,0,0,1-6.56,1.72,9.13,9.13,0,0,1-1.58.05,6.39,6.39,0,0,1-2.33-.58,5.81,5.81,0,0,1-1.81-1.49,9,9,0,0,1-.94-1.63c-.08-.22-.15-.35-.17-.4a14.11,14.11,0,0,1-1.21-5.85,85.32,85.32,0,0,1,.53-9.45q.09-.84.21-1.68c.53-.17,1-.34,1.36-.48,1.5-.62,3.86-1.38,6.22-2.43a.05.05,0,0,1,0,0,34.14,34.14,0,0,0,7.14-3.94,33.66,33.66,0,0,0,5.78-5.57c.55-.61,1-1.37,1.53-2.08l.38-.56.39-.65c.26-.44.46-.87.68-1.32a24.13,24.13,0,0,0,1.88-5.88,14.78,14.78,0,0,0,.22-3.59,11.28,11.28,0,0,0-.33-2.06,8.3,8.3,0,0,0-1-2.2,7,7,0,0,0-4.14-2.92l-.58-.16-.55-.09a8,8,0,0,0-1.09-.1,13,13,0,0,0-2.17.12,16.2,16.2,0,0,0-7.26,3.41,25.25,25.25,0,0,0-2.83,2.63,25,25,0,0,0-2.37,3l-.32.45A48.1,48.1,0,0,0,642.88,203a58,58,0,0,0-2.11,8.48l-1.48.5c-1.37.47-2.92,1-4.6,1.64l-3.3,1.23-5.49,2.11,3.28,3.25,1.38,1.61c.16.25.35.5.51.76a11.54,11.54,0,0,1,1.4,3.33,13.33,13.33,0,0,1-.46,7.29,14.06,14.06,0,0,1-.67,1.64,7.41,7.41,0,0,1-.4.74,2.63,2.63,0,0,1-.2.33l-.16.25c-.31.63-1,.63-2,.4-.54-.14-1.06-.3-1.55-.47a7.61,7.61,0,0,1-2.91-2.85l0,0c-1.36-3-3.14-7.3-4.8-11.45l-2.48-6.53c-.69-2-1.3-3.73-1.75-4.93-.26-.73-.56-1.54-.88-2.43s-.58-1.88-.89-2.92c-.59-2.07-1.33-4.32-1.88-6.66a.19.19,0,0,1,0-.07c-.34-1.36-.67-2.73-1-4.08s-.67-2.66-.92-3.93c-.54-2.54-1.05-4.82-1.48-6.55-.43-2-.92-4.28-1.43-6.91,1.15-3,2.21-5.65,2.76-7.14l0-.06.41-1.09c.63-1.84,1.34-3.92,2.08-6.29s1.48-5,2.16-7.87a191.89,191.89,0,0,0,3.43-19.46c.47-3.57.88-7.34,1.3-11.13s1-7.78,1.24-12a41,41,0,0,0-1.15-13.37c-.19-.59-.35-1.12-.57-1.74a9.17,9.17,0,0,0-1.09-2.08,8,8,0,0,0-4-3.09,7.11,7.11,0,0,0-5.42.44,10.51,10.51,0,0,0-3.47,2.89,14,14,0,0,0-1.15,1.65c-.31.52-.61,1-.88,1.59a28.54,28.54,0,0,0-1.39,3.3A42.88,42.88,0,0,0,599.1,108c-.42,2.21-.63,4.34-.92,6.49l-.42,3.2c-.13,1.06-.18,2.12-.28,3.17-.16,2.12-.38,4.2-.48,6.27s-.16,4.11-.23,6.13,0,4,0,6c0,3.92.22,7.7.37,11.33a218.28,218.28,0,0,0,3.4,26.85c-.39,1.3-.78,2.62-1.15,4l0,.07c-1,3.57-1.92,7.11-2.6,10a22.3,22.3,0,0,0-1.58-3.31,14.76,14.76,0,0,0-3.84-4.32,13.65,13.65,0,0,0-6.12-2.54,16.55,16.55,0,0,0-3.48-.15,14,14,0,0,0-3.58.72,19.2,19.2,0,0,0-6.24,3.58,39,39,0,0,0-8.92,11l-.26.47a41.11,41.11,0,0,0-2.91,6.56,47.55,47.55,0,0,0-1.72,6.68,39.67,39.67,0,0,0-.36,12.81,24.2,24.2,0,0,0,3.92,10.49c.22.31.44.61.66.88-.73-.61-1.49-1.28-2.27-2a53.14,53.14,0,0,1-3.93-4c-.65-.71-1.25-1.49-1.86-2.27s-1.23-1.55-1.8-2.34a96.81,96.81,0,0,1-5.73-8.92c-1.43-2.57-2.42-4.44-2.72-5a101.94,101.94,0,0,1-4.94-10.39c-2-4.87-3.77-10.21-4.5-12.65l0-.06c-.21-.65-.34-1.08-.39-1.22-.69-2.07-1.44-4.45-2.21-7.11a243,243,0,0,0,10.59-34.11c1-4.12,1.93-8.43,2.79-12.92q.61-3.37,1.25-6.85c.42-2.32.86-4.66,1.22-7.09a72.57,72.57,0,0,0,1-15.29,19,19,0,0,0-.78-4.37,10.1,10.1,0,0,0-2.72-4.45,7.89,7.89,0,0,0-5.36-2.06,10.69,10.69,0,0,0-5,1.31c-.43.23-.83.47-1.23.72a16.6,16.6,0,0,0-1.85,1.44q-.83.75-1.56,1.56a26.57,26.57,0,0,0-2.58,3.41,43.44,43.44,0,0,0-3.61,7.22,72.48,72.48,0,0,0-4.14,14.75,97.65,97.65,0,0,0-.37,27.87,177.34,177.34,0,0,0,4.37,22.51q.81,3.18,1.61,6l-.38.89c-.06.14-.23.55-.48,1.19l0,.06c-.9,2.36-3.09,7.55-5.36,12.39s-4.54,9.32-5.18,10.44-3.77,7.77-7.41,14.8c-1.89,3.65-3.82,7.27-5.76,10.88-1.06,2-2.14,5.18-4.83,5.25s-4.15-3.15-5-5.29A281.82,281.82,0,0,1,480,193.38c-1.45-5.9-2.72-11.95-2.23-18,.39-4.86,1.91-9.55,3.26-14.24,5.51-19.08,8.46-39,7.37-58.84-.22-4.11-1.07-8.9-4.74-10.75-3-1.53-6.92-.21-9.27,2.25s-3.49,5.83-4.4,9.11a104.27,104.27,0,0,0-3.59,34.31c.57,9.24,2.38,18.37,3.11,27.61s.31,18.79-3.35,27.3c-.9-6-6.82-10.46-12.87-10.79s-11.91,2.88-15.93,7.41-6.42,10.28-8.18,16.07c-2.25,7.4-3.55,15.45-1.12,22.78s9.51,13.57,17.2,12.85c8-.75,13.7-8.38,15.89-16.1-2.4,2.93-4.85,5.9-8,8s-7.13,3.3-10.78,2.28c-5.95-1.67-8.94-8.44-9.5-14.59a35.9,35.9,0,0,1,10.2-28.24c3.66-3.67,9.58-6.54,13.83-3.57,2.54,1.77,3.5,5,4.11,8.05a76,76,0,0,1,.35,28.17c5.14-12.3,8.12-25.38,11.08-38.37a6.51,6.51,0,0,0,.47,2c.19.79.39,1.58.59,2.37.39,1.51.81,3,1.25,4.52q1.31,4.51,2.9,8.93a151,151,0,0,0,7.43,17.24c2.3,4.55,4.65,9.54,7.91,13.49a3.49,3.49,0,0,0,2.92,1.46c3-.31,5.26-5,6.81-7.11q2.79-3.87,5.46-7.84c1.29-1.92,4.3-8.93,6.87-8.63,9.44,1.08,18.34,3.72,27.48,6.05.76.19,1.54.4,2.21.59a77.58,77.58,0,0,0,6.86,8.13,45.09,45.09,0,0,0,6.36,5.62,62.71,62.71,0,0,0,5.92,3.83c1.22.69,2.22,1.2,2.9,1.52.38.26.75.5,1.09.71a14.24,14.24,0,0,0,3.9,1.39,13.41,13.41,0,0,0,5.13,0h0a17.48,17.48,0,0,0,6.64-3.14,19,19,0,0,0,4.58-4.8,28.51,28.51,0,0,0,3.25-6.19c.4-1.17.58-1.91.46-1.9s-.28.21-.58.55a44.29,44.29,0,0,1-6.12,6.28,21.23,21.23,0,0,1-3.72,2.42c-1.05.56-1.84.77-2.05.91a8.4,8.4,0,0,1-4,.78,9.37,9.37,0,0,1-4.31-1.46,2.39,2.39,0,0,1-.39-.23,13.92,13.92,0,0,1-4.22-3.9,18.24,18.24,0,0,1-2.84-7.65,37.75,37.75,0,0,1,3.61-21.39c.43-.87.91-1.72,1.41-2.55a32.39,32.39,0,0,1,7.44-8.59,12.88,12.88,0,0,1,4.17-2.21,8.82,8.82,0,0,1,2-.35,9.06,9.06,0,0,1,1,0,8.37,8.37,0,0,1,1,.12A7.84,7.84,0,0,1,589.9,191a17.25,17.25,0,0,1,2,5.67c0,.06.06.24.13.53a33.52,33.52,0,0,1,.84,5.47,44.37,44.37,0,0,1,.05,5c-.05.55.14,3.71,0,7.16a64.81,64.81,0,0,1-1,8.77,2.18,2.18,0,0,0,0,.8c.06.1.54-.51,1.15-1.59a34.11,34.11,0,0,0,2.72-6.34,36.34,36.34,0,0,0,1.46-6.14c.2-1.58.6-3.95.86-6.45a0,0,0,0,1,0,0c0-.27,0-.55.08-.83,1.32-6.1,3.19-11.25,3.46-12.26.15-.53.54-1.81,1.09-3.49.72,2.56,1.82,6.6,3.12,10.37.37,1.16.74,2.3,1.09,3.37s.75,2.06,1.07,2.95c.65,1.78,1.14,3.13,1.32,3.69.1.27.31.87.66,1.7l1.42,3.12,1.9,4.11,2.39,4.6c1.59,3.19,3.55,6.32,5.15,9.07,1.1,1.79,2.16,3.35,3,4.58l0,.05.06.1.28.39.09.14.05.05.09.11,0,.06a11.41,11.41,0,0,0,1.28,1.36,5.55,5.55,0,0,0,4.09,1.65s.07,0,.08,0a5.1,5.1,0,0,0,2.42-1,10.07,10.07,0,0,0,.77-.84,15.11,15.11,0,0,0,2.58-5,14.83,14.83,0,0,0,.38-7.27,14.45,14.45,0,0,0-1.51-4.11c-.18-.34-.4-.66-.6-1l-.22-.36-.33-.48h.07l.17,0,.36,0,.34-.05,1.87-.62,3.82-1.32c-.16,1.55-.29,3.05-.37,4.47,0,.88-.1,1.73-.11,2.55s-.06,1.57,0,2.45a19.45,19.45,0,0,0,1.87,8.39,11.1,11.1,0,0,0,2.72,3.53,10.54,10.54,0,0,0,5.08,2.41h0a15.93,15.93,0,0,0,7.63-1,15.24,15.24,0,0,0,3.12-1.54l.72-.41a30,30,0,0,0,6.35-5.38,57.24,57.24,0,0,0,7.85-11.18c1.62-3,4-7.6,6.14-12.45a.19.19,0,0,1,0-.07c2.51-5.67,4.75-11.59,6-15.31.78-2.32,1.71-5.13,2.72-8.36.49,1,1,2,1.56,3l0,.07a87.21,87.21,0,0,0,7.81,11.69,81.18,81.18,0,0,0,8.41,9.08c.89.86,1.85,1.67,2.77,2.51l.06,0c0,.18-.06.35-.09.53a1.87,1.87,0,0,0,0,.53,2.87,2.87,0,0,0-.05.31,113,113,0,0,1-12.24,40c-3.66-.46-7.37-1-11.15-1.4a111.22,111.22,0,0,0-14.72-.79,60.45,60.45,0,0,0-15.06,2.15,65.85,65.85,0,0,0-26.79,14.51,63.42,63.42,0,0,0-10.08,11.62,33.33,33.33,0,0,0-3.64,7.23,23.13,23.13,0,0,0-1.44,8.31,19,19,0,0,0,2.17,8.5c.35.64.76,1.25,1.14,1.87s.88,1.15,1.33,1.71l1.53,1.56a15.16,15.16,0,0,0,1.69,1.38,20.52,20.52,0,0,0,7.77,3.43,28,28,0,0,0,8,.43,37.48,37.48,0,0,0,7.44-1.36,47.18,47.18,0,0,0,6.89-2.53A63.56,63.56,0,0,0,665,301.75a141.73,141.73,0,0,0,33.13-35.64c1.76-2.74,3.38-5.46,4.84-8.13a89.64,89.64,0,0,0,19.82-.13,51.94,51.94,0,0,0,10.43-2.5,42.6,42.6,0,0,0,8.93-4.47,46.55,46.55,0,0,0,7.11-5.8,64.74,64.74,0,0,0,5.47-6.32,117.12,117.12,0,0,0,7.78-12c2.15-3.65,4.21-6.87,5.87-9.87.69-1.21,1.28-2.38,1.83-3.51,0,.19.07.29.11.27a2.11,2.11,0,0,0,.36-.71,66.18,66.18,0,0,1,3.5-8.09,57,57,0,0,1,3.77-5.94,29.53,29.53,0,0,1,2.89-3.89,33.13,33.13,0,0,1,4-3.89l.39-.33a15.38,15.38,0,0,1,5-3.23,8.64,8.64,0,0,1,3.29-.57,8.84,8.84,0,0,1,3.64.85,7.78,7.78,0,0,1,3,2.62,14.15,14.15,0,0,1,2,4.4,27.24,27.24,0,0,1,.88,5.44,42.46,42.46,0,0,1-.07,5.95c-.08,1-.16,2-.29,3A49,49,0,0,1,800,220.66a31.32,31.32,0,0,1-5.18,8.91,15.36,15.36,0,0,1-6.3,4.79,7.49,7.49,0,0,1-5.1.14l-.44-.09a7.91,7.91,0,0,1-.79-.28,6,6,0,0,1-1.08-.44l-1.24-.67c-.43-.24-.82-.55-1.23-.83a12.85,12.85,0,0,1-2.91-3.28,24.71,24.71,0,0,1-3.14-6,35.4,35.4,0,0,1-1.35-4.86c-.31-1.54-.51-2.89-.64-3.68-.09-.44-.15-.72-.22-.76s-.33.65-.57,1.86a28.44,28.44,0,0,0-.44,7,20.6,20.6,0,0,0,1.35,6.46,23.62,23.62,0,0,0,3.51,6.18s0,0,0,0a16.59,16.59,0,0,0,7.17,5.12,13.5,13.5,0,0,0,8.91-.12,21.3,21.3,0,0,0,9.13-6.8,32.24,32.24,0,0,0,3.54-5.19,34.83,34.83,0,0,0,2.1-4.34l.15.2.89.91,1,.7.49.33.52.26a6.43,6.43,0,0,0,1,.43,7.86,7.86,0,0,0,4.24.27,10,10,0,0,0,3.26-1.38,17.31,17.31,0,0,0,3.9-3.59c.61-.75,1.1-1.44,1.52-2.07a33.83,33.83,0,0,0,.61,4,23.48,23.48,0,0,0,1.83,5.54A23.12,23.12,0,0,0,828,234.7a19.18,19.18,0,0,0,5.32,4.24,15.14,15.14,0,0,0,7.08,1.79l.55,0a16.46,16.46,0,0,0,6.95-1.84,20.74,20.74,0,0,0,5.36-4,31.34,31.34,0,0,0,4.28-5.66,11.84,11.84,0,0,0,.17,2.08,15.1,15.1,0,0,0,2.42,6c2.24,3.29,5.16,5,7,5.24l-.27-.27c-.19-.19-.49-.47-.88-.91a20.2,20.2,0,0,1-3.22-4.65,15.63,15.63,0,0,1-1.4-4.36,11.13,11.13,0,0,1-.13-2.73,14.16,14.16,0,0,1,.18-1.48c.1-.58.2-1.18.3-1.79s.16-1.09.24-1.65a9,9,0,0,0,2.31,1.54,7.85,7.85,0,0,0,4.33.73,9.2,9.2,0,0,0,3.52-1.19,16,16,0,0,0,4.19-3.63,28.77,28.77,0,0,0,2.17-3c-.06,3.51,0,6.4.11,8.05a14.81,14.81,0,0,0,.65,2.93,18.74,18.74,0,0,1,.57,2.43,18.31,18.31,0,0,0,1.61,4.84c.21.44.4.71.51.67s.14-.14.24-.32a28.23,28.23,0,0,0,1.27-3.55,18.41,18.41,0,0,0,.78-2.89c0-.44.31-3.44.41-4.31a1.32,1.32,0,0,0,0-.22,122.53,122.53,0,0,1,0-15.36c0-.4,0-.79.1-1.18l.06-.72a28.55,28.55,0,0,1,1.32-3.06,47.59,47.59,0,0,1,2.51-4.54l.71-1.1a28.62,28.62,0,0,1,6.57-7.08,18.3,18.3,0,0,1,5.89-2.93l.22-.07a7.83,7.83,0,0,1,1-.31,3.88,3.88,0,0,1,.56-.16,1.48,1.48,0,0,1,.48-.05,3.4,3.4,0,0,1,1.62.44,17.47,17.47,0,0,1,2.6,1.4,38,38,0,0,0,3.22,2c.18.08.29.12.32.1S911.75,193.87,911.46,193.47ZM474.92,161.38c-.45-3.7-.92-7.68-1.34-11.84a189.35,189.35,0,0,1-1.06-23.75,109.19,109.19,0,0,1,1.05-12.74c.32-2.13.69-4.28,1.16-6.42a26.17,26.17,0,0,1,1.83-5.89L477,100a6,6,0,0,1,3.24-3.1l.45-.1c.15,0,.36,0,.45,0a.18.18,0,0,1,.14,0A3.38,3.38,0,0,1,481.9,98a20.8,20.8,0,0,1,.85,5.68c.08,2,0,4.23,0,6.32a201,201,0,0,1-1.91,23.73c-1,7.28-2.36,13.84-3.72,19.43C476.39,156.23,475.64,159,474.92,161.38Zm50.61-12.44a92.46,92.46,0,0,1,0-25,67.46,67.46,0,0,1,3.21-13c1.57-4.26,3.46-8.51,6.34-11.44a10.31,10.31,0,0,1,2.16-1.75,5.86,5.86,0,0,1,2.2-.82,2.29,2.29,0,0,1,1.55.27,3.07,3.07,0,0,1,1.13,1.41,9.82,9.82,0,0,1,.68,2.62,15,15,0,0,1,.13,1.54c0,.56.05,1.11.05,1.67a77.72,77.72,0,0,1-1.25,13.41c-.77,4.45-1.61,8.81-2.38,13s-1.75,8.26-2.68,12.12a247.45,247.45,0,0,1-7.43,25.24A165,165,0,0,1,525.53,148.94Zm-2.73,48a.19.19,0,0,1,0-.08c1.94-3.46,3.84-7,5.38-10.19.11.34.22.68.33,1a117.14,117.14,0,0,0,6.82,15.92l0,.07.35.69c-.72.29-1.66.66-2.57,1-1.39.47-2.69.8-2.9.91s-1.07.38-2,.67-1.91.52-2.37.6h0l-.23.05a39.76,39.76,0,0,1-4.8,1.17c-1,.18-2.19.37-3.46.49-.56.06-1.16.11-1.77.14h0C517.39,206.31,520.13,201.75,522.8,197Zm18.47,19.16c-.6-.27-1.5-.71-2.42-1.17h0a24.55,24.55,0,0,0-3-1.26c-1.5-.47-4-1.22-7-1.9-1.28-.28-2.69-.56-4.15-.82.77-.2,1.43-.39,2-.54a19.37,19.37,0,0,0,3-1.29h0l2.41-1.28a20.17,20.17,0,0,0,4-2.85c2.34,4.45,4.89,8.52,6.63,11.25.19.3.41.63.65,1A17.43,17.43,0,0,0,541.27,216.13Zm63.29-51.31c-.62-4.53-1.17-9.53-1.51-14.92a206.69,206.69,0,0,1-.09-23.81c.17-2.1.33-4.22.51-6.37s.51-4.3.77-6.47c.52-4.38,1.26-8.65,3-12.3.12-.27.26-.53.4-.79A10,10,0,0,1,609.12,98a3.63,3.63,0,0,1,1.51-1.06,1.13,1.13,0,0,1,1,.16,3.1,3.1,0,0,1,1,1.31,12.79,12.79,0,0,1,.41,1.24c.17.45.25,1,.38,1.42a25.75,25.75,0,0,1,.49,2.94,40.75,40.75,0,0,1,.18,6.06c-.14,4.09-.71,8.15-1.21,12.2s-.89,7.88-1.38,11.56A182.82,182.82,0,0,1,608,153.25c-.68,2.77-1.4,5.29-2.12,7.53C605.43,162.23,605,163.58,604.56,164.82Zm48.75,29.7c.52-.85,1.15-1.66,1.71-2.45a19.16,19.16,0,0,1,4-3.88,9.13,9.13,0,0,1,4.31-1.74,4.51,4.51,0,0,1,1.69.2c.33.18.48.24.62.52a6.19,6.19,0,0,1,.12,3.56,18.39,18.39,0,0,1-1.38,4.19c-.15.31-.3.61-.46.89a7,7,0,0,1-.51.8c-.41.55-.75,1.11-1.17,1.6a28.41,28.41,0,0,1-4.76,4.58,5,5,0,0,0-.42.34l0,0a42.3,42.3,0,0,1-4.65,3.45,49.39,49.39,0,0,1-4.43,2.5,6.93,6.93,0,0,0-.79.41A45,45,0,0,1,653.31,194.52Zm33.81-59.73c0-3.78.1-7.72.33-11.79.12-2,.28-4.1.44-6.22s.36-4.18.65-6.25a45,45,0,0,1,1.24-6.09,17.74,17.74,0,0,1,2.29-5.23,6.22,6.22,0,0,1,1.6-1.63,3.83,3.83,0,0,1,1.81-.61l.32,0,.11.13a5.83,5.83,0,0,1,.84,2,29.28,29.28,0,0,1,.66,6.12c0,2.21,0,4.46-.19,6.71s-.31,4.56-.46,6.82c-.36,4.47-.79,8.87-1.34,13.16-1.11,8.57-2.56,16.69-4.21,24.11-.55,2.51-1.12,4.93-1.7,7.28A170.77,170.77,0,0,1,687.12,134.79Zm31.79,70.83a41.81,41.81,0,0,1,6.81-11.6,21.71,21.71,0,0,1,5.91-5.12,8.46,8.46,0,0,1,6.88-.89,8.64,8.64,0,0,1,5.18,5.25,26.45,26.45,0,0,1,1.62,9.67c-.08,7.12-1.16,14.61-4,20.78a30.9,30.9,0,0,1-2.51,4.43,22.94,22.94,0,0,1-3.09,3.76,14.6,14.6,0,0,1-3.61,2.66,9.54,9.54,0,0,1-3.9,1,9,9,0,0,1-2-.2,8.68,8.68,0,0,1-1-.23l-1-.37a15.52,15.52,0,0,1-3.56-2.12,17.37,17.37,0,0,1-4.69-6.35c-.26-.58-.49-1.16-.7-1.74a89.8,89.8,0,0,0,1.66-11.76c0-.11,0-.21,0-.32A42.51,42.51,0,0,1,718.91,205.62Zm-50,84a90,90,0,0,1-15.87,11.94,36.78,36.78,0,0,1-17.25,4.91,16.13,16.13,0,0,1-7.73-1.87c-.27-.17-.57-.29-.82-.48l-.76-.57a9.92,9.92,0,0,1-1.41-1.26,15.45,15.45,0,0,1-1.23-1.45,14,14,0,0,1-1-1.61,12.72,12.72,0,0,1-1.25-7.22,21.47,21.47,0,0,1,2.32-7.4A30.9,30.9,0,0,1,626,281.2l1.17-1.68c.41-.53.82-1.07,1.24-1.6a54.15,54.15,0,0,1,5.39-5.9,59.48,59.48,0,0,1,12.42-9,63,63,0,0,1,13.57-5.4,58.93,58.93,0,0,1,13.67-1.87c7.61-.17,14.92.73,22,1.5a130.88,130.88,0,0,1-11.92,17.26A139,139,0,0,1,668.93,289.62Z" style="fill:#1a1a1a"/><path d="M418.86,164.6h0a8.75,8.75,0,0,0-.3-5.18,6.8,6.8,0,0,0-1.71-2.63c-.25-.22-1.4.49-1.84.91l-.31.29h0l-.13-.18h0A5,5,0,0,0,411.9,155a7.12,7.12,0,0,0-6.26.17,8.23,8.23,0,0,0-2.95,2.56,8.57,8.57,0,0,0-1.47,4,8.77,8.77,0,0,0,.72,4.41,9,9,0,0,0,16,.67h0a56,56,0,0,1,2.84,21.63,67.39,67.39,0,0,1-2.3,13.44,85.16,85.16,0,0,1-10.23,22.66c-1,1.52-1.9,2.9-2.77,4.14h0l.17-.31c-3.28,4.88-6.21.6-6.68-.18h0a.57.57,0,0,0,0-.18c-.2-.72-.46-1.63-.69-2.75s-.36-2.38-.59-3.76a13.86,13.86,0,0,1-.17-2.18c0-.75-.05-1.53-.08-2.33s.1-1.61.15-2.44c0-.42.05-.84.07-1.26s.14-.84.2-1.26l.2-1.25a44.34,44.34,0,0,1,2.7-9.22,52.91,52.91,0,0,1,2.94-6.14s.05-.1.09-.22h0a41,41,0,0,1,1.8-4.29c.12-.21.48-1.57.89-3.1s.9-3.18,1-4a.87.87,0,0,0,0-.43c0-.09-.4,0-.87.34a16.44,16.44,0,0,0-2.41,1.85,13.83,13.83,0,0,0-1.88,2,22.6,22.6,0,0,1-1.84,2.13s0,0,0,0a16.65,16.65,0,0,0-2.09,2.67,58.63,58.63,0,0,0-3.23,7c-.65,1.53-1.16,3.29-1.74,5.12-.25.93-.45,1.9-.68,2.87a24.43,24.43,0,0,0-.55,3l0,.23a38,38,0,0,0-.57,5.12,23.55,23.55,0,0,0-2.63,1.64c-1.21.83-2.5,1.82-3.88,2.72A12.73,12.73,0,0,1,381,222a3.53,3.53,0,0,1-3-.62A4.08,4.08,0,0,1,376.3,219a11.67,11.67,0,0,1-.3-3.68c.15-2.24.57-4.07.63-4.9.24-.89.45-1.7.61-2.4.66-2.8.7-9,.83-11.79a19.79,19.79,0,0,0,0-3.24c-.11-1.34-.27-2.83-.45-4.2-.56-2.77-1.19-5-1.45-4.92a6.39,6.39,0,0,0-.81,2.2c-.35,1.25-.7,2.85-1.25,4.46-.9,3.21-2.19,6.34-2.2,6.85a46.88,46.88,0,0,1-1.21,4.76c-.65,2.07-1.34,4-1.38,4.23a120.44,120.44,0,0,1-3.8,12.94c-1,2.63-2,5.45-3.29,8.29-.6,1.42-1.26,2.84-1.93,4.26-.25.52-.14.28-.16.34h0l-.22-.16,0,0-.07-.07-.38-.32-.76-.65c-.52-.41-.93-.93-1.41-1.39a24.85,24.85,0,0,1-4.36-6.56,40.43,40.43,0,0,1-3.36-14.63,69.18,69.18,0,0,1,.37-11.68c.34-3,.73-4.94.83-5.49a8.74,8.74,0,0,0-.78-4.63,22.17,22.17,0,0,0-1.19-2.5c-1.82,0-3.24,1.5-4.13,2.94a12.07,12.07,0,0,0-1.3,2.87,2.08,2.08,0,0,1,0,.33l-.14,1c-.13.85-.32,2.09-.51,3.67a82,82,0,0,0-.61,13.06,49.47,49.47,0,0,0,3.85,18l.09.19a69.27,69.27,0,0,1-5.26,6.64,20.71,20.71,0,0,1-5.91,4.6,13.18,13.18,0,0,1-3.51,1.08,7.94,7.94,0,0,1-3.37-.19,5.62,5.62,0,0,1-4.11-4,10.36,10.36,0,0,1-.42-3.1,21.41,21.41,0,0,1,.25-3.16,49.78,49.78,0,0,1,1.12-5.21q.27-1,.45-1.74a.19.19,0,0,0,0-.07,29,29,0,0,0,1.14-5.11c.05-.23.09-.45.13-.71.2-1.22.37-2.75.5-4.52s.22-3.77.3-5.87,0-4.47,0-6.68a36.63,36.63,0,0,1,.42-6.39,16.79,16.79,0,0,1,1.9-5.45c1.81-3.3,4.36-5.56,5.84-7.2l-.44.15a13.29,13.29,0,0,0-1.39.59,17.52,17.52,0,0,0-5.59,4.19,17,17,0,0,0-3.16,5.09,20.21,20.21,0,0,0-.81,2.56,8.08,8.08,0,0,0-.43-1.74h0a13.37,13.37,0,0,0-1.5-3,11.84,11.84,0,0,0-2.92-3,12.5,12.5,0,0,0-6.73-2.21,16.77,16.77,0,0,0-7.25,1.45s0,0,0,0a20.53,20.53,0,0,0-4.05,2.4,22.92,22.92,0,0,0-2.77,2.42,40.89,40.89,0,0,0-4.72,6.1,41.43,41.43,0,0,0-4.52,9.65,48.14,48.14,0,0,0-2,10.37c-.63.37-1.28.79-2,1.27-1.2.83-2.5,1.82-3.87,2.72a12.68,12.68,0,0,1-4.13,1.94,3.53,3.53,0,0,1-3-.62,4.11,4.11,0,0,1-1.71-2.45,10.87,10.87,0,0,1-.31-3.28,152.3,152.3,0,0,0,5.07-27.92c.15-1.41.2-3,.3-4.8s.2-3.69.21-5.71,0-4.13,0-6.29c0-1.09,0-2.18-.05-3.28s-.11-2.21-.17-3.31c-.27-8.85-1.5-17.65-2.15-23.26-.47-2.93-1.17-7.52-2.48-12.65-.28-1.29-.67-2.6-1.06-3.93s-.76-2.69-1.21-4l-1.41-4c-.46-1.34-1.06-2.63-1.57-3.92a67.84,67.84,0,0,0-6.91-12.65c-2.17-3-3.95-4.62-3.95-4.4s.6,1,1.4,2.27a57.67,57.67,0,0,1,2.81,5.44,89.16,89.16,0,0,1,5.65,17.18c.41,1.59.68,3.23,1,4.84l.45,2.4c.14.79.23,1.59.35,2.37.22,1.56.43,3.09.64,4.55s.27,2.88.39,4.2.28,2.54.33,3.67.12,2.15.17,3c.1,1.78.19,3,.24,3.56.15,1.06.21,3.92.37,7.61.11,1.85.06,3.92.06,6.08s0,4.41-.1,6.64c-.23,4.46-.37,8.84-.76,12.19s-.52,5.69-.61,6.11c-.22,2.07-.47,4.33-.74,6.76s-.75,5-1.25,7.73a121.39,121.39,0,0,1-4.69,17.71c-.58,1.55-1.12,3.16-1.83,4.71-.35.78-.66,1.58-1,2.36l-1.15,2.35c-.81,1.54-1.67,3.09-2.63,4.57-.12.18-.23.38-.35.55l-.3.42h0s0,0,0,0l-1-.7c-.38-.27-.73-.57-1.1-.85a42.73,42.73,0,0,1-4.23-3.77,51.56,51.56,0,0,1-7.24-9.36c-4.26-7-7.31-15.19-9.73-23.89l-.21-.79c2.48-5.33,5.15-11.52,7.77-18.49,2.46-6.58,4.94-13.86,7.1-21.8a133.91,133.91,0,0,0,4.44-25.86,90.35,90.35,0,0,0-.18-14.22c-.08-1.21-.3-2.41-.44-3.63-.09-.61-.16-1.22-.26-1.82l-.36-1.83a37.53,37.53,0,0,0-2-7.55,15.67,15.67,0,0,0-2.3-4A9.55,9.55,0,0,0,240.73,91a11.18,11.18,0,0,0-1.48-.32l-.73-.06a4.07,4.07,0,0,0-.68,0l-1.14,0-1.14.13A17.71,17.71,0,0,0,231.14,92c-5.68,2.44-9.51,7.49-11.62,12.6a57.7,57.7,0,0,0-3.61,15.56c-.29,2.58-.48,5.14-.66,7.67s-.35,5.08-.44,7.66a127.82,127.82,0,0,0,.34,15.53c.22,2.59.52,5.17.93,7.74s1,5.2,1.49,7.54c1.93,9,3.63,18.07,5.91,26.91-.89,1.86-1.75,3.61-2.57,5.23-4,7.83-6.9,12.82-7.84,14.48A158.87,158.87,0,0,0,205,229.5c-1,2.42-1.89,4.52-2.48,6l-.92,2.37c2.71-.92,7.37-6.09,11.19-11.17s6.82-10,6.82-10,.53-1,1.57-2.86,2.55-4.61,4.41-8.17c.32-.61.65-1.25,1-1.9A91.16,91.16,0,0,0,234.7,222a60,60,0,0,0,8.58,11.13c.83.81,1.63,1.63,2.51,2.37l1.29,1.13,1.33,1.05c.45.35.89.71,1.35,1l1.79,1.25c1.69,1.05,3.37,1.91,5,2.86,2.64-1.64,5.59-6.18,6.23-7.24.58-.9,1.11-1.8,1.6-2.7s1-1.79,1.43-2.69a73.48,73.48,0,0,0,3.06-6.89,3.19,3.19,0,0,0,.26.26c.36.27.73.52,1.1.76l.54.35.57.27a6.83,6.83,0,0,0,1.16.46,8.63,8.63,0,0,0,4.67.23,10.65,10.65,0,0,0,3.48-1.54,17.29,17.29,0,0,0,4-3.81,28.82,28.82,0,0,0,2.34-3.6,29.83,29.83,0,0,0,2.73,13.71l.25.51a16.94,16.94,0,0,0,1,1.69l.53.82c.19.27.41.51.62.77.43.49.82,1,1.29,1.48l1.46,1.3a12.12,12.12,0,0,0,1.56,1.13,11.82,11.82,0,0,0,1.65,1c.6.27,1.18.56,1.78.81l1.91.55a14,14,0,0,0,7.65-.5,17.82,17.82,0,0,0,5.84-3.45,27.28,27.28,0,0,0,3.68-3.81c0,.34.05.68.11,1a10.71,10.71,0,0,0,3.61,6.53,10.59,10.59,0,0,0,6.2,2.29,11.55,11.55,0,0,0,3-.22,16.75,16.75,0,0,0,2.57-.79,15.7,15.7,0,0,0,4.12-2.44,23.34,23.34,0,0,0,5-5.6,37,37,0,0,0,3.16-6,32.06,32.06,0,0,0,5,7.28,24.33,24.33,0,0,0,1.9,1.9l1,.89.51.44c.06.06.24.17.38.27l.43.29c1.18.77,2.27,1.56,3.52,2.31l3.82,2.23,2.39-4.38c.4-.72.78-1.47,1.16-2.22.27-.55.53-1.1.8-1.64.77-1.6,1.51-3.18,2.18-4.74s1.31-3.09,1.93-4.56l.36-1h0c.33.34.67.67,1,1s.74.52,1.1.76l.54.35.57.27a6.94,6.94,0,0,0,1.17.46,8.59,8.59,0,0,0,4.66.23,10.55,10.55,0,0,0,3.48-1.54,17.29,17.29,0,0,0,4-3.81,27.63,27.63,0,0,0,3.06-5c0,.74,0,1.46,0,2.17a17.5,17.5,0,0,0,.15,2.65c.11.84.21,1.65.31,2.41a19.13,19.13,0,0,0,.35,2.12c.25,1.29.54,2.38.77,3.2.05.17.12.37.2.58l.19.44,0,0a17.26,17.26,0,0,0,1.2,2.12v0c.43.69.92,1.36,1.31,1.91a6.3,6.3,0,0,0,4.54,2.11,6.36,6.36,0,0,0,.88,0,11,11,0,0,0,5.35-2.4,88.7,88.7,0,0,0,10-16,77.39,77.39,0,0,0,6.28-18.41,56.35,56.35,0,0,0-.81-27A50.38,50.38,0,0,0,418.86,164.6Zm-4.44-1.45a4.52,4.52,0,0,1-1.88,3,4.86,4.86,0,0,1-3.25.84,5,5,0,0,1-2.86-1.29,5.26,5.26,0,0,1-1.49-5.15,5.61,5.61,0,0,1,2.72-3.48,6.07,6.07,0,0,1,3.32-.68,6.25,6.25,0,0,1,2.23.64,5.74,5.74,0,0,1,1.1.72l.13.1a1.73,1.73,0,0,0,.1.24h0l-.43.39c-.5.47-.82.95-.7,1.07A4.37,4.37,0,0,1,414.42,163.15Zm-188.83,3.68c-.26-1.18-.52-2.37-.77-3.55s-.51-2.27-.71-3.42q-.65-3.41-1-6.88a119.39,119.39,0,0,1-.67-14.06q0-3.54.26-7.09c.15-2.38.31-4.83.5-7.18a71.35,71.35,0,0,1,2.16-13.53c1.19-4.21,3-7.91,5.87-10.28a11.22,11.22,0,0,1,4.57-2.4,10.5,10.5,0,0,1,1.23-.2,4.46,4.46,0,0,1,.63,0,2.74,2.74,0,0,1,.51,0,1.39,1.39,0,0,1,.89.35,9,9,0,0,1,2.16,4,58.58,58.58,0,0,1,1.39,6.15,81.07,81.07,0,0,1,1,12.66,104.73,104.73,0,0,1-.83,12.37c-.56,4-1.23,8-2.13,11.78a192.3,192.3,0,0,1-6.25,21.31c-1.85,5.35-3.78,10.28-5.67,14.79C227.66,176.78,226.65,171.83,225.59,166.83Zm85.86,65.08a12.33,12.33,0,0,1-3.76,2.36,7.59,7.59,0,0,1-4.2.52,4.84,4.84,0,0,1-1.08-.26l-.54-.14-.54-.26c-.36-.18-.73-.3-1.09-.52l-1.07-.71a5.37,5.37,0,0,1-1-.79,8.48,8.48,0,0,1-.93-.87l-.84-1a10.35,10.35,0,0,1-.73-1.09,16.22,16.22,0,0,1-1.22-2.34,26.27,26.27,0,0,1-1.55-11,41.51,41.51,0,0,1,1.94-10.36,35.59,35.59,0,0,1,3.78-8,34.14,34.14,0,0,1,4-5.18l.34-.4,0,0a24.08,24.08,0,0,1,3.83-3.7,10.34,10.34,0,0,1,3.83-1.84,11.78,11.78,0,0,1,2.05-.43,10.71,10.71,0,0,1,4.14.24,10.32,10.32,0,0,1,4.16,2.32,20.13,20.13,0,0,1,2.48,2.78,2.66,2.66,0,0,0,.53.58,32.62,32.62,0,0,0-.77,4.79c-.26,2.86-.26,5.91-.55,9.26l-.12,1.75a8.13,8.13,0,0,0-.16.82,43.52,43.52,0,0,1-1,4.86,49.1,49.1,0,0,1-1.78,5.4v0c-.11.27-.18.44-.2.5a32.59,32.59,0,0,1-2.66,6A25.17,25.17,0,0,1,311.45,231.91Zm89.13,3.23h.08l-.06.08A.29.29,0,0,1,400.58,235.14Z" style="fill:#1a1a1a"/><path d="M106.71,262.44c-3.47-2.8-32.83-27.14-47-60.94a106.25,106.25,0,0,1-4.53-13l-.26-1-.61.79c-.15.19-14.69,18.45-53,35.4,1.41-2.24,4.32-7,7.88-13.24,11.82-20.9,31-59.52,26.86-83.36C31.69,102.3,15.11,98.6,5.61,98.6c-.8,0-1.6,0-2.38.08-1,.07-1.79.17-2.3.25C1.41,92.86,6.71,44,54.27,17.05,68.64,8.89,85.66,3.42,104.87.76A71,71,0,0,0,89.14,17.3l-.43.63c-.28.41-.56.84-.84,1.27l-.41.66c-.14.22-.28.44-.41.66-.28.45-.55.91-.82,1.37l-.41.7c-.12.23-.25.46-.38.69-1,1.76-1.86,3.54-2.65,5.32C74.89,46.25,70.64,76,95.23,117.71l0,.05c3.26,5.53,7,11.19,11.07,16.82l.45.63.47-.83a101.76,101.76,0,0,0,10.64-33c2.59-18.21-.09-35.12-8-50.35,11.65,14.82,46.93,64.93,42.15,122.87a123.92,123.92,0,0,1-7.2,32.68,137.9,137.9,0,0,1-22.4,38.88A175.68,175.68,0,0,1,106.71,262.44Z" style="fill:url(#a)"/><path d="M103,1.53A71.76,71.76,0,0,0,88.73,17l.82.56-.86-.52-.39.58c-.28.42-.57.85-.84,1.28-.15.23-.29.45-.42.67l-.42.67c-.28.45-.55.91-.82,1.38-.14.23-.28.47-.4.7l-.41.72c-1,1.75-1.86,3.54-2.66,5.33C74.39,46.15,70.1,76.1,94.8,118l.07.11h0c3.26,5.52,7,11.17,11.06,16.81l.9,1.24.78-1.33.09-.17a102.42,102.42,0,0,0,10.7-33.21c2.35-16.56.38-32-5.85-46.17a228.62,228.62,0,0,1,18.64,29.95c10.91,21,23.32,53.42,20.41,88.62a123.66,123.66,0,0,1-7.17,32.54,137,137,0,0,1-22.32,38.74,175.38,175.38,0,0,1-15.42,16.69C102,258,73.91,234.08,60.17,201.3a104.06,104.06,0,0,1-4.5-13l-.53-1.92L53.91,188c-.14.18-14.25,17.89-51.32,34.59,1.58-2.55,4.08-6.68,7-11.87,11.86-21,31.13-59.7,26.92-83.69C32,100.92,13.38,98.1,5.61,98.1c-.81,0-1.62,0-2.42.08s-1.24.11-1.71.17a106.4,106.4,0,0,1,53-80.87C68.35,9.63,84.66,4.27,103,1.53M106.84,0C85.1,2.76,67.8,8.8,54,16.61,2.66,45.75.39,99.53.39,99.53a25.37,25.37,0,0,1,2.87-.35c.69-.05,1.48-.08,2.35-.08,8.69,0,25.59,3.3,29.94,28.08,4.15,23.68-15,62.14-26.81,83C3.76,219,.09,224.67,0,224.81c40.05-17.4,54.7-36.21,54.7-36.21a104.81,104.81,0,0,0,4.55,13.09C74.48,238,106.74,263.1,106.74,263.1a175.33,175.33,0,0,0,16.15-17.38,137.57,137.57,0,0,0,22.48-39,124.41,124.41,0,0,0,7.23-32.81c5.65-68.5-45.1-126.74-45.85-127.6,11.73,19.36,12.91,39.11,10.65,55a101.06,101.06,0,0,1-10.57,32.88l-.09.15q-6.3-8.72-11.07-16.84h0C72,77.34,74.62,48.08,83.25,28.8c.82-1.84,1.7-3.59,2.62-5.25l.39-.71.4-.7.81-1.35.41-.67.42-.65c.27-.43.55-.85.83-1.27l.38-.57a.1.1,0,0,0,0-.05A66.54,66.54,0,0,1,106.84,0Z" style="fill:#181818"/><path d="M59.24,181.29,13.43,214.07,8.74,210.2c11.82-20.88,31-59.34,26.81-83-4.79-27.27-24.77-28.53-32.29-28l.29-3.6s22.71-16.19,48,12.25c0,0,5.5,10.86,3.56,28.63C54.45,142.41,51.74,165.49,59.24,181.29Z" style="opacity:0.30000000000000004;mix-blend-mode:overlay"/><path d="M115.72,124.61s1.68,33.15,14.32,44.81l-7-5.31-14.61-18.56-1.78-9.09Z" style="opacity:0.15"/><path d="M55.1,136.86S42.65,164.7,48.58,188.8l9.68-9.09S51.15,161.35,55.1,136.86Z" style="opacity:0.15"/><path d="M10.07,94.2s22.51-5.13,41.47,13.63c0,0-13.82-7.9-26.26-4.74Z" style="opacity:0.15"/><path d="M4.58,92.19a10.27,10.27,0,0,1,1-.58c.31-.16.59-.27.89-.41.6-.27,1.18-.44,1.76-.65a24.83,24.83,0,0,1,3.51-.84,29.52,29.52,0,0,1,3.49-.37c1.16-.06,2.3,0,3.44,0a36.53,36.53,0,0,1,12.73,3.47,48.4,48.4,0,0,1,5.65,3,10.51,10.51,0,0,1,1.34.86l1.29.91c.86.61,1.73,1.2,2.57,1.82,1.6,1.35,3.23,2.65,4.78,4l4.46,4.33-5.06-3.55c-1.73-1.1-3.52-2.11-5.26-3.16-.9-.46-1.83-.89-2.73-1.34l-1.36-.66a10.1,10.1,0,0,0-1.39-.61,47.59,47.59,0,0,0-5.64-1.94,31.88,31.88,0,0,0-11.38-1.26c-.92.15-1.84.21-2.72.41a21.27,21.27,0,0,0-2.58.71,16.45,16.45,0,0,0-2.39,1c-.35.2-.75.38-1.06.6-.15.11-.34.22-.46.32s-.34.24-.27.23Z" style="fill:#181818"/><path d="M54.16,186.22c-.23-1.19-.38-2.19-.53-3.26s-.27-2.11-.39-3.16c-.22-2.1-.4-4.19-.51-6.28-.24-4.17-.32-8.34-.21-12.48s.35-8.28.81-12.38,1.06-8.17,1.77-12.2c-.06,4.1-.05,8.18.21,12.25s.63,8.1,1.16,12.11,1.26,8,2.13,11.89c.42,2,.92,3.9,1.44,5.82.26.95.53,1.91.82,2.84s.61,1.91.9,2.7Z" style="fill:#181818"/><path d="M111.41,140.73c.17.54.43,1.23.68,1.86s.53,1.3.8,1.95c.57,1.29,1.17,2.58,1.81,3.85a78.49,78.49,0,0,0,4.28,7.49,72.47,72.47,0,0,0,5.1,7.05,74.25,74.25,0,0,0,6,6.49,73.87,73.87,0,0,1-7.34-5.08,75,75,0,0,1-6.78-6,82,82,0,0,1-6.17-6.72q-1.45-1.78-2.83-3.64c-.45-.63-.91-1.25-1.35-1.91s-.86-1.27-1.33-2.06Z" style="fill:#181818"/><path d="M83.17,12.92l-.13.19h0L83,13.2h0c-.14.2-.28.4-.41.61-.31.45-.6.9-.9,1.36-.16.25-.32.5-.47.75l-.44.7c-.31.51-.62,1-.9,1.52-.16.26-.31.53-.46.79l-.44.79c-1.06,1.92-2,3.88-2.91,5.84-8.62,19.25-13.38,51.5,12.82,95.9l.51.86h0c3.26,5.46,7,11,11,16.58l7.12,9.81,6.11-10.48.15-.25a108.36,108.36,0,0,0,11.51-35.62,105.68,105.68,0,0,0,1-11.74c10.19,20.21,21.16,50.27,18.5,82.6A117,117,0,0,1,138,204a130.52,130.52,0,0,1-21.21,36.79c-3.18,3.93-6.65,7.82-10.38,11.63C97,243.9,77.17,224,66.53,198.63a98.1,98.1,0,0,1-4.21-12.12l-4.14-15.24L48.5,183.71c-.11.13-8.23,10.13-28.27,22,13.66-25.56,27-57.6,23.1-79.88C38.45,98,19.32,92.41,9.45,91.4c3-15.33,13.27-47.95,48.47-67.92A120.18,120.18,0,0,1,83.17,12.92M106.84,0C85.1,2.76,67.8,8.8,54,16.61,2.66,45.75.39,99.53.39,99.53a25.37,25.37,0,0,1,2.87-.35c.69-.05,1.48-.08,2.35-.08,8.69,0,25.59,3.3,29.94,28.08,4.15,23.68-15,62.14-26.81,83C3.76,219,.09,224.67,0,224.81c40.05-17.4,54.7-36.21,54.7-36.21a104.81,104.81,0,0,0,4.55,13.09C74.48,238,106.74,263.1,106.74,263.1a175.33,175.33,0,0,0,16.15-17.38,137.57,137.57,0,0,0,22.48-39,124.41,124.41,0,0,0,7.23-32.81c5.65-68.5-45.1-126.74-45.85-127.6,11.73,19.36,12.91,39.11,10.65,55a101.06,101.06,0,0,1-10.57,32.88l-.09.15q-6.3-8.72-11.07-16.84h0C72,77.34,74.62,48.08,83.25,28.8c.82-1.84,1.7-3.59,2.62-5.25l.39-.71.4-.7.81-1.35.41-.67.42-.65c.27-.43.55-.85.83-1.27l.38-.57a.1.1,0,0,0,0-.05A66.54,66.54,0,0,1,106.84,0Z" style="fill:#181818"/></g></svg>