<svg xmlns="http://www.w3.org/2000/svg" width="153.04" height="263.1" viewBox="0 0 153.04 263.1"><title>Asset 45</title><path d="M4.58,92.19a10.27,10.27,0,0,1,1-.58c.31-.16.59-.27.89-.41.6-.27,1.18-.44,1.76-.65a24.83,24.83,0,0,1,3.51-.84,29.52,29.52,0,0,1,3.49-.37c1.16-.06,2.3,0,3.44,0a36.53,36.53,0,0,1,12.73,3.47,48.4,48.4,0,0,1,5.65,3,10.51,10.51,0,0,1,1.34.86l1.29.91c.86.61,1.73,1.2,2.57,1.82,1.6,1.35,3.23,2.65,4.78,4l4.46,4.33-5.06-3.55c-1.73-1.1-3.52-2.11-5.26-3.16-.9-.46-1.83-.89-2.73-1.34l-1.36-.66a10.1,10.1,0,0,0-1.39-.61,47.59,47.59,0,0,0-5.64-1.94,31.88,31.88,0,0,0-11.38-1.26c-.92.15-1.84.21-2.72.41a21.27,21.27,0,0,0-2.58.71,16.45,16.45,0,0,0-2.39,1c-.35.2-.75.38-1.06.6-.15.11-.34.22-.46.32s-.34.24-.27.23Z" style="fill:#eee"/><path d="M54.16,186.22c-.23-1.19-.38-2.19-.53-3.26s-.27-2.11-.39-3.16c-.22-2.1-.4-4.19-.51-6.28-.24-4.17-.32-8.34-.21-12.48s.35-8.28.81-12.38,1.06-8.17,1.77-12.2c-.06,4.1-.05,8.18.21,12.25s.63,8.1,1.16,12.11,1.26,8,2.13,11.89c.42,2,.92,3.9,1.43,5.82.27.95.54,1.91.83,2.84s.61,1.91.9,2.7Z" style="fill:#eee"/><path d="M111.41,140.73c.17.54.43,1.23.68,1.86s.53,1.3.8,1.95c.57,1.29,1.17,2.58,1.81,3.85a78.49,78.49,0,0,0,4.28,7.49,72.47,72.47,0,0,0,5.1,7.05,74.25,74.25,0,0,0,6,6.49,73.87,73.87,0,0,1-7.34-5.08,75,75,0,0,1-6.78-6,82,82,0,0,1-6.17-6.72q-1.45-1.78-2.83-3.64c-.45-.63-.91-1.25-1.35-1.91s-.86-1.27-1.33-2.06Z" style="fill:#eee"/><path d="M83.17,12.92l-.12.17,0,0,0,0-.45.67c-.3.45-.6.9-.9,1.37-.16.24-.32.49-.47.74l-.44.7c-.31.51-.62,1-.9,1.52-.16.26-.31.52-.46.79l-.44.79c-1,1.91-2,3.88-2.91,5.84-8.62,19.25-13.38,51.5,12.82,95.9l.51.86h0c3.26,5.46,7,11,11,16.58l7.11,9.77,6.12-10.43.15-.26a108.17,108.17,0,0,0,11.51-35.62,105.68,105.68,0,0,0,1-11.74c10.19,20.21,21.16,50.27,18.5,82.6A117,117,0,0,1,138,204a130.52,130.52,0,0,1-21.21,36.79c-3.18,3.93-6.65,7.82-10.38,11.63C97,243.9,77.17,224,66.53,198.63a98.68,98.68,0,0,1-4.21-12.12l-4.14-15.24L48.5,183.71c-.11.13-8.23,10.13-28.27,22,13.66-25.56,27-57.6,23.1-79.88C38.45,98,19.32,92.41,9.45,91.4c3-15.33,13.27-47.95,48.47-67.92A120.18,120.18,0,0,1,83.17,12.92M106.84,0C85.1,2.76,67.8,8.8,54,16.61,2.66,45.75.39,99.53.39,99.53a25.37,25.37,0,0,1,2.87-.35c.69-.05,1.48-.08,2.35-.08,8.69,0,25.59,3.3,29.94,28.08,4.15,23.68-15,62.14-26.81,83C3.76,219,.09,224.67,0,224.81c40.05-17.4,54.7-36.21,54.7-36.21a104.81,104.81,0,0,0,4.55,13.09C74.48,238,106.74,263.1,106.74,263.1a175.33,175.33,0,0,0,16.15-17.38,137.57,137.57,0,0,0,22.48-39,124.41,124.41,0,0,0,7.23-32.81c5.65-68.5-45.1-126.74-45.85-127.6,11.73,19.36,12.91,39.11,10.65,55a101.06,101.06,0,0,1-10.57,32.88l-.09.15q-6.3-8.72-11.07-16.84h0C72,77.34,74.62,48.08,83.25,28.8c.82-1.84,1.7-3.59,2.62-5.25l.39-.71.4-.7.81-1.35.41-.67.42-.65c.27-.43.55-.85.83-1.27l.38-.57a.1.1,0,0,0,0-.05A66.54,66.54,0,0,1,106.84,0Z" style="fill:#eee"/></svg>